<svg xmlns="http://www.w3.org/2000/svg" width="1332" height="922" viewBox="-1 -10 1332 934"><text x="0" y="28" font-family="Inter" font-size="26" font-weight="800" fill="#191F28" text-anchor="start">01 인증 (애플리케이션 접속)</text><g transform="translate(0,76)"><text x="0" y="-14" font-family="Inter" font-size="14" font-weight="600" fill="#6B7684" text-anchor="start">로그인</text><rect x="0" y="0" width="390" height="844" rx="20" fill="#FFFFFF" stroke="#D6DBE0" stroke-width="1.5"/><g><circle cx="195.0" cy="150" r="44" fill="#FFF4DC" stroke="#FFAA00" stroke-width="2"/><text x="195.0" y="162.32" font-family="Inter" font-size="35" font-weight="700" fill="#D18700" text-anchor="middle">R</text><text x="195.0" y="232" font-family="Inter" font-size="22" font-weight="700" fill="#191F28" text-anchor="middle">당신의 발표를 더 완벽하게</text><text x="195.0" y="264" font-family="Inter" font-size="24" font-weight="800" fill="#FFAA00" text-anchor="middle">Rehearsal.io</text><rect x="24" y="310" width="342" height="54" rx="12" fill="#FFFFFF" stroke="#E5E8EB" stroke-width="1.2"/><text x="40" y="342.0" font-family="Inter" font-size="15" font-weight="400" fill="#B0B8C1" text-anchor="start">아이디</text><rect x="24" y="376" width="342" height="54" rx="12" fill="#FFFFFF" stroke="#E5E8EB" stroke-width="1.2"/><text x="40" y="408.0" font-family="Inter" font-size="15" font-weight="400" fill="#B0B8C1" text-anchor="start">비밀번호</text><rect x="24" y="446" width="18" height="18" rx="5" fill="#FFF4DC" stroke="#FFAA00" stroke-width="1.5"/><path d="M27 455 L31.5 459.5 L39 450" stroke="#D18700" stroke-width="2" fill="none" stroke-linecap="round" stroke-linejoin="round"/><text x="50" y="460" font-family="Inter" font-size="13" font-weight="400" fill="#6B7684" text-anchor="start">최근 로그인 계정으로 자동 로그인</text><rect x="24" y="484" width="342" height="56" rx="14" fill="#FFAA00"/><text x="195.0" y="517.76" font-family="Inter" font-size="16" font-weight="700" fill="#FFFFFF" text-anchor="middle">로그인</text><text x="195.0" y="570" font-family="Inter" font-size="13" font-weight="500" fill="#6B7684" text-anchor="middle">아이디 찾기   |   비밀번호 찾기   |   회원가입</text><rect x="24" y="600" width="342" height="50" rx="10" fill="#F2F4F6"/><text x="195.0" y="630.04" font-family="Inter" font-size="14" font-weight="600" fill="#4E5968" text-anchor="middle">카카오로 로그인</text><rect x="24" y="658" width="342" height="50" rx="10" fill="#F2F4F6"/><text x="195.0" y="688.04" font-family="Inter" font-size="14" font-weight="600" fill="#4E5968" text-anchor="middle">네이버로 로그인</text><rect x="24" y="716" width="342" height="50" rx="10" fill="#F2F4F6"/><text x="195.0" y="746.04" font-family="Inter" font-size="14" font-weight="600" fill="#4E5968" text-anchor="middle">구글로 로그인</text></g></g><g transform="translate(470,76)"><text x="0" y="-14" font-family="Inter" font-size="14" font-weight="600" fill="#6B7684" text-anchor="start">회원가입</text><rect x="0" y="0" width="390" height="844" rx="20" fill="#FFFFFF" stroke="#D6DBE0" stroke-width="1.5"/><g><path d="M34 24 L26 30 L34 36" stroke="#191F28" stroke-width="1.8" fill="none" stroke-linecap="round" stroke-linejoin="round"/><text x="195.0" y="35" font-family="Inter" font-size="17" font-weight="600" fill="#191F28" text-anchor="middle">회원가입</text><rect x="24" y="90" width="342" height="54" rx="12" fill="#FFFFFF" stroke="#E5E8EB" stroke-width="1.2"/><text x="40" y="122.0" font-family="Inter" font-size="15" font-weight="400" fill="#B0B8C1" text-anchor="start">이름</text><rect x="24" y="154" width="342" height="54" rx="12" fill="#FFFFFF" stroke="#E5E8EB" stroke-width="1.2"/><text x="40" y="186.0" font-family="Inter" font-size="15" font-weight="400" fill="#B0B8C1" text-anchor="start">아이디</text><rect x="24" y="218" width="342" height="54" rx="12" fill="#FFFFFF" stroke="#E5E8EB" stroke-width="1.2"/><text x="40" y="250.0" font-family="Inter" font-size="15" font-weight="400" fill="#B0B8C1" text-anchor="start">비밀번호</text><rect x="24" y="282" width="342" height="54" rx="12" fill="#FFFFFF" stroke="#E5E8EB" stroke-width="1.2"/><text x="40" y="314.0" font-family="Inter" font-size="15" font-weight="400" fill="#B0B8C1" text-anchor="start">비밀번호 확인</text><rect x="24" y="346" width="232" height="54" rx="12" fill="#FFFFFF" stroke="#E5E8EB" stroke-width="1.2"/><text x="40" y="378.0" font-family="Inter" font-size="15" font-weight="400" fill="#B0B8C1" text-anchor="start">이메일</text><rect x="266" y="346" width="100" height="54" rx="14" fill="#FFF4DC"/><text x="316.0" y="377.68" font-family="Inter" font-size="13" font-weight="700" fill="#D18700" text-anchor="middle">인증요청</text><rect x="24" y="410" width="342" height="54" rx="12" fill="#FFFFFF" stroke="#E5E8EB" stroke-width="1.2"/><text x="40" y="442.0" font-family="Inter" font-size="15" font-weight="400" fill="#B0B8C1" text-anchor="start">인증코드 입력</text><text x="350" y="442" font-family="Inter" font-size="13" font-weight="600" fill="#D18700" text-anchor="end">02:59</text><rect x="24" y="764" width="342" height="56" rx="14" fill="#F2F4F6"/><text x="195.0" y="797.76" font-family="Inter" font-size="16" font-weight="600" fill="#B0B8C1" text-anchor="middle">가입하기</text><text x="195.0" y="750" font-family="Inter" font-size="12" font-weight="400" fill="#B0B8C1" text-anchor="middle">이메일 인증을 완료하면 가입할 수 있어요</text></g></g><g transform="translate(940,76)"><text x="0" y="-14" font-family="Inter" font-size="14" font-weight="600" fill="#6B7684" text-anchor="start">아이디·비밀번호 찾기</text><rect x="0" y="0" width="390" height="844" rx="20" fill="#FFFFFF" stroke="#D6DBE0" stroke-width="1.5"/><g><path d="M34 24 L26 30 L34 36" stroke="#191F28" stroke-width="1.8" fill="none" stroke-linecap="round" stroke-linejoin="round"/><text x="195.0" y="35" font-family="Inter" font-size="17" font-weight="600" fill="#191F28" text-anchor="middle">아이디·비밀번호 찾기</text><circle cx="195.0" cy="330" r="14" fill="#FFECEE"/><text x="195.0" y="335" font-family="Inter" font-size="16" font-weight="700" fill="#F04452" text-anchor="middle">!</text><text x="195.0" y="386" font-family="Inter" font-size="20" font-weight="700" fill="#191F28" text-anchor="middle">관리자에게 문의하세요</text><text x="195.0" y="416" font-family="Inter" font-size="13" font-weight="400" fill="#6B7684" text-anchor="middle">아이디·비밀번호 찾기는 아직 준비 중이에요.</text><text x="195.0" y="436" font-family="Inter" font-size="13" font-weight="400" fill="#6B7684" text-anchor="middle">admin@rehearsal.io 로 문의해주세요.</text><rect x="24" y="764" width="342" height="56" rx="14" fill="#F2F4F6"/><text x="195.0" y="797.76" font-family="Inter" font-size="16" font-weight="600" fill="#4E5968" text-anchor="middle">로그인으로 돌아가기</text></g></g></svg>