<svg xmlns="http://www.w3.org/2000/svg" width="392" height="922" viewBox="-1 -10 392 934"><text x="0" y="28" font-family="Inter" font-size="26" font-weight="800" fill="#191F28" text-anchor="start">02 메인 페이지</text><g transform="translate(0,76)"><text x="0" y="-14" font-family="Inter" font-size="14" font-weight="600" fill="#6B7684" text-anchor="start">메인 페이지</text><rect x="0" y="0" width="390" height="844" rx="20" fill="#FFFFFF" stroke="#D6DBE0" stroke-width="1.5"/><g><text x="24" y="44" font-family="Inter" font-size="16" font-weight="800" fill="#FFAA00" text-anchor="start">Rehearsal.io</text><circle cx="350" cy="38" r="16" fill="#FFF4DC"/><text x="350" y="42.480000000000004" font-family="Inter" font-size="12" font-weight="700" fill="#D18700" text-anchor="middle">J</text><text x="24" y="108" font-family="Inter" font-size="24" font-weight="700" fill="#191F28" text-anchor="start">준서님, 반가워요</text><text x="24" y="146" font-family="Inter" font-size="14" font-weight="500" fill="#6B7684" text-anchor="start">내 프레젠테이션 팀</text><rect x="24" y="168" width="342" height="96" rx="16" fill="#F7F8FA"/><text x="44" y="206" font-family="Inter" font-size="17" font-weight="700" fill="#191F28" text-anchor="start">teamname1</text><text x="44" y="230" font-family="Inter" font-size="13" font-weight="400" fill="#6B7684" text-anchor="start">준서, 서진 · 발표 3회</text><path d="M342 211 L348 216 L342 221" stroke="#B0B8C1" stroke-width="1.8" fill="none" stroke-linecap="round" stroke-linejoin="round"/><rect x="24" y="276" width="342" height="96" rx="16" fill="#F7F8FA"/><text x="44" y="314" font-family="Inter" font-size="17" font-weight="700" fill="#191F28" text-anchor="start">teamname2</text><text x="44" y="338" font-family="Inter" font-size="13" font-weight="400" fill="#6B7684" text-anchor="start">준서, 서진, 서영 · 발표 3회</text><path d="M342 319 L348 324 L342 329" stroke="#B0B8C1" stroke-width="1.8" fill="none" stroke-linecap="round" stroke-linejoin="round"/><rect x="24" y="384" width="342" height="96" rx="16" fill="#FFFFFF" stroke="#B0B8C1" stroke-width="1.4" stroke-dasharray="6 5"/><path d="M126.0 432 H140.0 M133.0 425 V439" stroke="#6B7684" stroke-width="2" fill="none" stroke-linecap="round" stroke-linejoin="round"/><text x="149.0" y="437" font-family="Inter" font-size="15" font-weight="600" fill="#6B7684" text-anchor="start">새 프레젠테이션 팀</text></g></g></svg>