<svg xmlns="http://www.w3.org/2000/svg" width="1802" height="922" viewBox="-1 -10 1802 934"><text x="0" y="28" font-family="Inter" font-size="26" font-weight="800" fill="#191F28" text-anchor="start">03 프레젠테이션 팀</text><g transform="translate(0,76)"><text x="0" y="-14" font-family="Inter" font-size="14" font-weight="600" fill="#6B7684" text-anchor="start">팀 만들기</text><rect x="0" y="0" width="390" height="844" rx="20" fill="#FFFFFF" stroke="#D6DBE0" stroke-width="1.5"/><g><path d="M34 24 L26 30 L34 36" stroke="#191F28" stroke-width="1.8" fill="none" stroke-linecap="round" stroke-linejoin="round"/><text x="24" y="104" font-family="Inter" font-size="24" font-weight="700" fill="#191F28" text-anchor="start">새로운 프레젠테이션</text><text x="24" y="138" font-family="Inter" font-size="24" font-weight="700" fill="#191F28" text-anchor="start">팀을 만들게요</text><text x="24" y="176" font-family="Inter" font-size="13" font-weight="500" fill="#6B7684" text-anchor="start">팀 이름</text><rect x="24" y="186" width="342" height="54" rx="12" fill="#FFFFFF" stroke="#E5E8EB" stroke-width="1.2"/><text x="40" y="218.0" font-family="Inter" font-size="15" font-weight="400" fill="#B0B8C1" text-anchor="start">팀 이름 입력</text><text x="362" y="260" font-family="Inter" font-size="12" font-weight="400" fill="#B0B8C1" text-anchor="end">0 / 20</text><text x="24" y="296" font-family="Inter" font-size="15" font-weight="700" fill="#191F28" text-anchor="start">팀원 초대</text><rect x="24" y="312" width="232" height="54" rx="12" fill="#FFFFFF" stroke="#E5E8EB" stroke-width="1.2"/><text x="40" y="344.0" font-family="Inter" font-size="15" font-weight="400" fill="#B0B8C1" text-anchor="start">이메일 주소</text><rect x="266" y="312" width="100" height="54" rx="14" fill="#FFF4DC"/><text x="316.0" y="343.68" font-family="Inter" font-size="13" font-weight="700" fill="#D18700" text-anchor="middle">초대 보내기</text><rect x="24" y="380" width="272" height="26" rx="13" fill="#F2F4F6"/><text x="160.0" y="397" font-family="Inter" font-size="12" font-weight="600" fill="#6B7684" text-anchor="middle">seojin@kaist.ac.kr  ✕</text><path d="M40 441 a5 5 0 0 1 7 7 l-3 3 a5 5 0 0 1 -7 -7 M39 448 l6 -6" stroke="#6B7684" stroke-width="1.6" fill="none" stroke-linecap="round" stroke-linejoin="round"/><rect x="24" y="420" width="342" height="50" rx="10" fill="#F2F4F6"/><text x="195.0" y="450.04" font-family="Inter" font-size="14" font-weight="600" fill="#4E5968" text-anchor="middle">초대 링크 복사</text><text x="24" y="494" font-family="Inter" font-size="13" font-weight="400" fill="#6B7684" text-anchor="start">초대를 수락하면 자동으로 팀에 합류돼요.</text><text x="24" y="514" font-family="Inter" font-size="13" font-weight="400" fill="#6B7684" text-anchor="start">팀을 만든 후에도 초대할 수 있어요.</text><rect x="24" y="764" width="342" height="56" rx="14" fill="#FFAA00"/><text x="195.0" y="797.76" font-family="Inter" font-size="16" font-weight="700" fill="#FFFFFF" text-anchor="middle">팀 만들기</text></g></g><g transform="translate(470,76)"><text x="0" y="-14" font-family="Inter" font-size="14" font-weight="600" fill="#6B7684" text-anchor="start">초대 수락</text><rect x="0" y="0" width="390" height="844" rx="20" fill="#FFFFFF" stroke="#D6DBE0" stroke-width="1.5"/><g><circle cx="195.0" cy="240" r="40" fill="#FFF4DC" stroke="#FFAA00" stroke-width="2"/><text x="195.0" y="251.2" font-family="Inter" font-size="32" font-weight="700" fill="#D18700" text-anchor="middle">T</text><text x="195.0" y="322" font-family="Inter" font-size="15" font-weight="500" fill="#6B7684" text-anchor="middle">준서님이 초대했어요</text><text x="195.0" y="354" font-family="Inter" font-size="20" font-weight="700" fill="#191F28" text-anchor="middle">'teamname1' 팀에 참여할까요?</text><rect x="54" y="390" width="282" height="68" rx="16" fill="#F7F8FA"/><text x="195.0" y="418" font-family="Inter" font-size="15" font-weight="700" fill="#191F28" text-anchor="middle">teamname1</text><text x="195.0" y="440" font-family="Inter" font-size="13" font-weight="400" fill="#6B7684" text-anchor="middle">팀원 2명 · 발표 3회</text><rect x="24" y="696" width="342" height="56" rx="14" fill="#FFAA00"/><text x="195.0" y="729.76" font-family="Inter" font-size="16" font-weight="700" fill="#FFFFFF" text-anchor="middle">수락하기</text><rect x="24" y="764" width="342" height="56" rx="14" fill="#F2F4F6"/><text x="195.0" y="797.76" font-family="Inter" font-size="16" font-weight="600" fill="#4E5968" text-anchor="middle">거절하기</text></g></g><g transform="translate(940,76)"><text x="0" y="-14" font-family="Inter" font-size="14" font-weight="600" fill="#6B7684" text-anchor="start">팀 페이지</text><rect x="0" y="0" width="390" height="844" rx="20" fill="#FFFFFF" stroke="#D6DBE0" stroke-width="1.5"/><g><path d="M34 24 L26 30 L34 36" stroke="#191F28" stroke-width="1.8" fill="none" stroke-linecap="round" stroke-linejoin="round"/><circle cx="362" cy="23" r="1.8" fill="#191F28"/><circle cx="362" cy="30" r="1.8" fill="#191F28"/><circle cx="362" cy="37" r="1.8" fill="#191F28"/><text x="24" y="104" font-family="Inter" font-size="24" font-weight="700" fill="#191F28" text-anchor="start">teamname1</text><rect x="24" y="122" width="104" height="26" rx="13" fill="#FFF4DC"/><text x="76.0" y="139" font-family="Inter" font-size="12" font-weight="600" fill="#D18700" text-anchor="middle">준서 (팀장)</text><rect x="136" y="122" width="44" height="26" rx="13" fill="#F2F4F6"/><text x="158.0" y="139" font-family="Inter" font-size="12" font-weight="600" fill="#6B7684" text-anchor="middle">서진</text><rect x="188" y="122" width="64" height="26" rx="13" fill="#FFFFFF" stroke="#E5E8EB" stroke-width="1.2"/><text x="220" y="139" font-family="Inter" font-size="12" font-weight="600" fill="#6B7684" text-anchor="middle">+ 초대</text><text x="24" y="184" font-family="Inter" font-size="15" font-weight="700" fill="#191F28" text-anchor="start">발표 세션</text><rect x="24" y="202" width="342" height="88" rx="16" fill="#F7F8FA"/><text x="44" y="236" font-family="Inter" font-size="16" font-weight="700" fill="#191F28" text-anchor="start">1차 발표</text><text x="44" y="260" font-family="Inter" font-size="13" font-weight="400" fill="#6B7684" text-anchor="start">7월 8일 · 질문 5개 · 11분</text><rect x="272" y="220" width="56" height="26" rx="13" fill="#FFF4DC"/><text x="300.0" y="237" font-family="Inter" font-size="12" font-weight="600" fill="#D18700" text-anchor="middle">리포트</text><path d="M342 255 L348 260 L342 265" stroke="#B0B8C1" stroke-width="1.8" fill="none" stroke-linecap="round" stroke-linejoin="round"/><rect x="24" y="302" width="342" height="88" rx="16" fill="#F7F8FA"/><text x="44" y="336" font-family="Inter" font-size="16" font-weight="700" fill="#191F28" text-anchor="start">2차 발표</text><text x="44" y="360" font-family="Inter" font-size="13" font-weight="400" fill="#6B7684" text-anchor="start">7월 9일 · 질문 5개 · 9분</text><rect x="272" y="320" width="56" height="26" rx="13" fill="#FFF4DC"/><text x="300.0" y="337" font-family="Inter" font-size="12" font-weight="600" fill="#D18700" text-anchor="middle">리포트</text><path d="M342 355 L348 360 L342 365" stroke="#B0B8C1" stroke-width="1.8" fill="none" stroke-linecap="round" stroke-linejoin="round"/><rect x="24" y="402" width="342" height="88" rx="16" fill="#FFFFFF" stroke="#B0B8C1" stroke-width="1.4" stroke-dasharray="6 5"/><path d="M138.0 446 H152.0 M145.0 439 V453" stroke="#6B7684" stroke-width="2" fill="none" stroke-linecap="round" stroke-linejoin="round"/><text x="161.0" y="451" font-family="Inter" font-size="15" font-weight="600" fill="#6B7684" text-anchor="start">새 발표 시작</text></g></g><g transform="translate(1410,76)"><text x="0" y="-14" font-family="Inter" font-size="14" font-weight="600" fill="#6B7684" text-anchor="start">팀 관리 바텀시트</text><rect x="0" y="0" width="390" height="844" rx="20" fill="#FFFFFF" stroke="#D6DBE0" stroke-width="1.5"/><g><path d="M34 24 L26 30 L34 36" stroke="#191F28" stroke-width="1.8" fill="none" stroke-linecap="round" stroke-linejoin="round"/><circle cx="362" cy="23" r="1.8" fill="#191F28"/><circle cx="362" cy="30" r="1.8" fill="#191F28"/><circle cx="362" cy="37" r="1.8" fill="#191F28"/><text x="24" y="104" font-family="Inter" font-size="24" font-weight="700" fill="#191F28" text-anchor="start">teamname1</text><rect x="0" y="0" width="390" height="844" rx="0" fill="#191F28" fill-opacity="0.45"/><rect x="0" y="524" width="390" height="320" rx="24" fill="#FFFFFF"/><rect x="175.0" y="534" width="40" height="4" rx="2" fill="#E5E8EB"/><text x="24" y="568" font-family="Inter" font-size="17" font-weight="700" fill="#191F28" text-anchor="start">팀 관리</text><text x="24" y="624.0" font-family="Inter" font-size="16" font-weight="500" fill="#191F28" text-anchor="start">팀원 초대하기</text><path d="M358 614.0 L364 619.0 L358 624.0" stroke="#B0B8C1" stroke-width="1.8" fill="none" stroke-linecap="round" stroke-linejoin="round"/><line x1="24" y1="648" x2="366" y2="648" stroke="#E5E8EB" stroke-width="1"/><text x="24" y="682.0" font-family="Inter" font-size="16" font-weight="500" fill="#191F28" text-anchor="start">팀 나가기</text><path d="M358 672.0 L364 677.0 L358 682.0" stroke="#B0B8C1" stroke-width="1.8" fill="none" stroke-linecap="round" stroke-linejoin="round"/><line x1="24" y1="706" x2="366" y2="706" stroke="#E5E8EB" stroke-width="1"/><text x="24" y="740.0" font-family="Inter" font-size="16" font-weight="500" fill="#F04452" text-anchor="start">팀 삭제</text><text x="348" y="740.0" font-family="Inter" font-size="13" font-weight="400" fill="#B0B8C1" text-anchor="end">팀장만 가능</text><path d="M358 730.0 L364 735.0 L358 740.0" stroke="#B0B8C1" stroke-width="1.8" fill="none" stroke-linecap="round" stroke-linejoin="round"/><line x1="24" y1="764" x2="366" y2="764" stroke="#E5E8EB" stroke-width="1"/></g></g></svg>