<svg xmlns="http://www.w3.org/2000/svg" width="1332" height="922" viewBox="-1 -10 1332 934"><text x="0" y="28" font-family="Inter" font-size="26" font-weight="800" fill="#191F28" text-anchor="start">04 발표 준비 (자료·설정)</text><g transform="translate(0,76)"><text x="0" y="-14" font-family="Inter" font-size="14" font-weight="600" fill="#6B7684" text-anchor="start">발표 설정</text><rect x="0" y="0" width="390" height="844" rx="20" fill="#FFFFFF" stroke="#D6DBE0" stroke-width="1.5"/><g><path d="M34 24 L26 30 L34 36" stroke="#191F28" stroke-width="1.8" fill="none" stroke-linecap="round" stroke-linejoin="round"/><text x="24" y="96" font-family="Inter" font-size="22" font-weight="700" fill="#B0B8C1" text-anchor="start">발표 이름을 입력해주세요</text><text x="24" y="122" font-family="Inter" font-size="13" font-weight="400" fill="#6B7684" text-anchor="start">teamname1</text><text x="24" y="158" font-family="Inter" font-size="15" font-weight="700" fill="#191F28" text-anchor="start">발표 자료 (PDF · 선택)</text><rect x="24" y="172" width="342" height="110" rx="16" fill="#FFFFFF" stroke="#B0B8C1" stroke-width="1.4" stroke-dasharray="6 5"/><path d="M195.0 218 V204 M189.0 209 L195.0 203 L201.0 209 M185.0 222 H205.0" stroke="#6B7684" stroke-width="1.8" fill="none" stroke-linecap="round" stroke-linejoin="round"/><text x="195.0" y="244" font-family="Inter" font-size="14" font-weight="500" fill="#B0B8C1" text-anchor="middle">PDF를 업로드해주세요</text><text x="195.0" y="264" font-family="Inter" font-size="11.5" font-weight="400" fill="#B0B8C1" text-anchor="middle">최대 20MB · 50페이지</text><text x="24" y="302" font-family="Inter" font-size="12" font-weight="400" fill="#6B7684" text-anchor="start">자료 없이 진행하면 발표 내용만으로 질문을 만들어요.</text><text x="24" y="340" font-family="Inter" font-size="15" font-weight="700" fill="#191F28" text-anchor="start">진행 방식</text><rect x="24" y="354" width="342" height="48" rx="12" fill="#F2F4F6"/><rect x="28.0" y="358" width="167.0" height="40" rx="9" fill="#FFFFFF" stroke="#E5E8EB" stroke-width="1"/><text x="111.5" y="383" font-family="Inter" font-size="14" font-weight="600" fill="#191F28" text-anchor="middle">실시간 녹음</text><text x="278.5" y="383" font-family="Inter" font-size="14" font-weight="500" fill="#6B7684" text-anchor="middle">녹음 파일 업로드</text><text x="24" y="438" font-family="Inter" font-size="15" font-weight="700" fill="#191F28" text-anchor="start">질문자 성격 (중복 선택)</text><rect x="24" y="452" width="62" height="40" rx="20" fill="#FFF4DC" stroke="#FFAA00" stroke-width="1.5"/><text x="55.0" y="477" font-family="Inter" font-size="14" font-weight="600" fill="#D18700" text-anchor="middle">에겐</text><rect x="94" y="452" width="62" height="40" rx="20" fill="#FFF4DC" stroke="#FFAA00" stroke-width="1.5"/><text x="125.0" y="477" font-family="Inter" font-size="14" font-weight="600" fill="#D18700" text-anchor="middle">테토</text><rect x="164" y="452" width="62" height="40" rx="20" fill="#FFFFFF" stroke="#E5E8EB" stroke-width="1.2"/><text x="195.0" y="477" font-family="Inter" font-size="14" font-weight="500" fill="#4E5968" text-anchor="middle">꼰대</text><rect x="234" y="452" width="62" height="40" rx="20" fill="#FFFFFF" stroke="#E5E8EB" stroke-width="1.2"/><text x="265.0" y="477" font-family="Inter" font-size="14" font-weight="500" fill="#4E5968" text-anchor="middle">멍청</text><rect x="304" y="452" width="62" height="40" rx="20" fill="#FFFFFF" stroke="#E5E8EB" stroke-width="1.2"/><text x="335.0" y="477" font-family="Inter" font-size="14" font-weight="500" fill="#4E5968" text-anchor="middle">잼민</text><text x="24" y="556" font-family="Inter" font-size="13" font-weight="500" fill="#6B7684" text-anchor="start">질문 개수</text><text x="203.0" y="556" font-family="Inter" font-size="13" font-weight="500" fill="#6B7684" text-anchor="start">발표 제한시간</text><rect x="24" y="566" width="163.0" height="54" rx="12" fill="#FFFFFF" stroke="#E5E8EB" stroke-width="1.2"/><text x="40" y="598.0" font-family="Inter" font-size="15" font-weight="500" fill="#191F28" text-anchor="start">5개</text><rect x="203.0" y="566" width="163.0" height="54" rx="12" fill="#FFFFFF" stroke="#E5E8EB" stroke-width="1.2"/><text x="219.0" y="598.0" font-family="Inter" font-size="15" font-weight="500" fill="#191F28" text-anchor="start">10분</text><text x="24" y="640" font-family="Inter" font-size="12" font-weight="400" fill="#6B7684" text-anchor="start">꼬리질문은 질문 1개당 최대 1번 이어질 수 있어요.</text><rect x="24" y="764" width="342" height="56" rx="14" fill="#FFAA00"/><text x="195.0" y="797.76" font-family="Inter" font-size="16" font-weight="700" fill="#FFFFFF" text-anchor="middle">발표 시작하기</text></g></g><g transform="translate(470,76)"><text x="0" y="-14" font-family="Inter" font-size="14" font-weight="600" fill="#6B7684" text-anchor="start">자료 전처리 상태 (variants)</text><rect x="0" y="0" width="390" height="844" rx="20" fill="#FFFFFF" stroke="#D6DBE0" stroke-width="1.5"/><g><path d="M34 24 L26 30 L34 36" stroke="#191F28" stroke-width="1.8" fill="none" stroke-linecap="round" stroke-linejoin="round"/><text x="24" y="104" font-family="Inter" font-size="24" font-weight="700" fill="#191F28" text-anchor="start">발표 자료를 준비하고</text><text x="24" y="138" font-family="Inter" font-size="24" font-weight="700" fill="#191F28" text-anchor="start">있어요</text><rect x="24" y="190" width="342" height="96" rx="16" fill="#F7F8FA"/><path d="M58 226 A12 12 0 1 1 46 238" stroke="#FFAA00" stroke-width="3" fill="none" stroke-linecap="round" stroke-linejoin="round"/><text x="86" y="232" font-family="Inter" font-size="15" font-weight="600" fill="#191F28" text-anchor="start">슬라이드 텍스트 추출 중…</text><text x="86" y="254" font-family="Inter" font-size="12.5" font-weight="400" fill="#6B7684" text-anchor="start">4 / 10 페이지</text><rect x="86" y="264" width="252" height="6" rx="3" fill="#F2F4F6"/><rect x="86" y="264" width="100.80000000000001" height="6" rx="3" fill="#FFAA00"/><rect x="24" y="302" width="342" height="84" rx="16" fill="#F7F8FA"/><circle cx="58" cy="344" r="13" fill="#E6F9F1"/><path d="M52 344 L56.5 348.5 L64 339" stroke="#00C473" stroke-width="2.2" fill="none" stroke-linecap="round" stroke-linejoin="round"/><text x="86" y="340" font-family="Inter" font-size="15" font-weight="600" fill="#191F28" text-anchor="start">추출 완료</text><text x="86" y="362" font-family="Inter" font-size="12.5" font-weight="400" fill="#6B7684" text-anchor="start">10개 슬라이드 · slides.json 생성됨</text><rect x="24" y="402" width="342" height="110" rx="16" fill="#FFECEE"/><circle cx="58" cy="444" r="14" fill="#FFECEE"/><text x="58" y="449" font-family="Inter" font-size="16" font-weight="700" fill="#F04452" text-anchor="middle">!</text><text x="86" y="440" font-family="Inter" font-size="15" font-weight="600" fill="#F04452" text-anchor="start">텍스트를 읽을 수 없어요</text><text x="86" y="462" font-family="Inter" font-size="12.5" font-weight="400" fill="#6B7684" text-anchor="start">스캔본·이미지 PDF는 지원하지 않아요.</text><rect x="86" y="474" width="110" height="30" rx="10" fill="#FFFFFF" stroke="#E5E8EB" stroke-width="1.2"/><text x="141.0" y="493.5" font-family="Inter" font-size="12.5" font-weight="600" fill="#191F28" text-anchor="middle">다시 업로드</text><text x="24" y="552" font-family="Inter" font-size="12" font-weight="400" fill="#6B7684" text-anchor="start">업로드 후 파싱 상태가 카드로 표시돼요.</text><text x="24" y="571" font-family="Inter" font-size="12" font-weight="400" fill="#6B7684" text-anchor="start">실패 시 원인 안내와 함께 재업로드를 유도해요.</text></g></g><g transform="translate(940,76)"><text x="0" y="-14" font-family="Inter" font-size="14" font-weight="600" fill="#6B7684" text-anchor="start">녹음 파일 업로드</text><rect x="0" y="0" width="390" height="844" rx="20" fill="#FFFFFF" stroke="#D6DBE0" stroke-width="1.5"/><g><path d="M34 24 L26 30 L34 36" stroke="#191F28" stroke-width="1.8" fill="none" stroke-linecap="round" stroke-linejoin="round"/><text x="24" y="104" font-family="Inter" font-size="24" font-weight="700" fill="#191F28" text-anchor="start">녹음 파일로</text><text x="24" y="138" font-family="Inter" font-size="24" font-weight="700" fill="#191F28" text-anchor="start">진행할게요</text><rect x="24" y="190" width="342" height="130" rx="16" fill="#FFFFFF" stroke="#B0B8C1" stroke-width="1.4" stroke-dasharray="6 5"/><path d="M195.0 244 V230 M189.0 235 L195.0 229 L201.0 235 M185.0 248 H205.0" stroke="#6B7684" stroke-width="1.8" fill="none" stroke-linecap="round" stroke-linejoin="round"/><text x="195.0" y="270" font-family="Inter" font-size="14" font-weight="500" fill="#B0B8C1" text-anchor="middle">발표 녹음 파일을 올려주세요</text><text x="195.0" y="290" font-family="Inter" font-size="11.5" font-weight="400" fill="#B0B8C1" text-anchor="middle">mp3 · wav · m4a / 최대 60분 · 200MB</text><rect x="24" y="344" width="342" height="68" rx="16" fill="#F7F8FA"/><circle cx="58" cy="378" r="16" fill="#FFF4DC"/><path d="M55.0 373 L63 378 L55.0 383 Z" fill="#D18700"/><text x="86" y="374" font-family="Inter" font-size="14.5" font-weight="600" fill="#191F28" text-anchor="start">final_rehearsal.m4a</text><text x="86" y="396" font-family="Inter" font-size="12.5" font-weight="400" fill="#6B7684" text-anchor="start">12:34 · 18MB</text><text x="348" y="382" font-family="Inter" font-size="14" font-weight="500" fill="#B0B8C1" text-anchor="end">✕</text><rect x="24" y="764" width="342" height="56" rx="14" fill="#FFAA00"/><text x="195.0" y="797.76" font-family="Inter" font-size="16" font-weight="700" fill="#FFFFFF" text-anchor="middle">질의응답 만들기</text></g></g></svg>