<svg xmlns="http://www.w3.org/2000/svg" width="1332" height="922" viewBox="-1 -10 1332 934"><text x="0" y="28" font-family="Inter" font-size="26" font-weight="800" fill="#191F28" text-anchor="start">05 발표 진행</text><g transform="translate(0,76)"><text x="0" y="-14" font-family="Inter" font-size="14" font-weight="600" fill="#6B7684" text-anchor="start">발표중</text><rect x="0" y="0" width="390" height="844" rx="20" fill="#FFFFFF" stroke="#D6DBE0" stroke-width="1.5"/><g><text x="195.0" y="88" font-family="Inter" font-size="20" font-weight="700" fill="#191F28" text-anchor="middle">1차 발표</text><rect x="24" y="120" width="342" height="214" rx="16" fill="#F2F4F6"/><text x="195.0" y="225" font-family="Inter" font-size="14" font-weight="500" fill="#B0B8C1" text-anchor="middle">PDF 슬라이드</text><text x="195.0" y="248" font-family="Inter" font-size="12.5" font-weight="400" fill="#B0B8C1" text-anchor="middle">3 / 10</text><rect x="24" y="350" width="165.0" height="48" rx="10" fill="#F2F4F6"/><text x="106.5" y="379.04" font-family="Inter" font-size="14" font-weight="600" fill="#4E5968" text-anchor="middle">이전 슬라이드</text><rect x="201.0" y="350" width="165.0" height="48" rx="10" fill="#F2F4F6"/><text x="283.5" y="379.04" font-family="Inter" font-size="14" font-weight="600" fill="#4E5968" text-anchor="middle">다음 슬라이드</text><circle cx="121.0" cy="452" r="5" fill="#F04452"/><text x="135.0" y="457" font-family="Inter" font-size="14" font-weight="600" fill="#6B7684" text-anchor="start">발표 녹음 중</text><text x="195.0" y="508" font-family="Inter" font-size="30" font-weight="800" fill="#FFAA00" text-anchor="middle">07:42 / 10:00</text><rect x="139.0" y="528" width="188" height="26" rx="13" fill="#FFECEE"/><text x="233.0" y="545" font-family="Inter" font-size="12" font-weight="600" fill="#F04452" text-anchor="middle">초과 시 +00:32 표시</text><rect x="24" y="764" width="342" height="56" rx="14" fill="#FFAA00"/><text x="195.0" y="797.76" font-family="Inter" font-size="16" font-weight="700" fill="#FFFFFF" text-anchor="middle">발표 마치기</text></g></g><g transform="translate(470,76)"><text x="0" y="-14" font-family="Inter" font-size="14" font-weight="600" fill="#6B7684" text-anchor="start">STT 변환 로딩</text><rect x="0" y="0" width="390" height="844" rx="20" fill="#FFFFFF" stroke="#D6DBE0" stroke-width="1.5"/><g><path d="M195.0 278 A22 22 0 1 1 173.0 300" stroke="#FFAA00" stroke-width="3" fill="none" stroke-linecap="round" stroke-linejoin="round"/><text x="195.0" y="360" font-family="Inter" font-size="17" font-weight="700" fill="#191F28" text-anchor="middle">발표 내용을 텍스트로 정리하고 있어요</text><text x="195.0" y="390" font-family="Inter" font-size="13" font-weight="400" fill="#6B7684" text-anchor="middle">보통 1~2분 정도 걸려요.</text><text x="195.0" y="410" font-family="Inter" font-size="13" font-weight="400" fill="#6B7684" text-anchor="middle">화면을 닫아도 진행 상황은 저장돼요.</text><rect x="24" y="470" width="342" height="76" rx="16" fill="#FFECEE"/><circle cx="58" cy="508" r="14" fill="#FFECEE"/><text x="58" y="513" font-family="Inter" font-size="16" font-weight="700" fill="#F04452" text-anchor="middle">!</text><text x="86" y="504" font-family="Inter" font-size="14.5" font-weight="600" fill="#F04452" text-anchor="start">변환에 실패했어요</text><rect x="86" y="514" width="96" height="28" rx="10" fill="#FFFFFF" stroke="#E5E8EB" stroke-width="1.2"/><text x="134.0" y="532.32" font-family="Inter" font-size="12" font-weight="600" fill="#191F28" text-anchor="middle">다시 시도</text><text x="24" y="580" font-family="Inter" font-size="11.5" font-weight="400" fill="#B0B8C1" text-anchor="start">(실패 시 variant)</text></g></g><g transform="translate(940,76)"><text x="0" y="-14" font-family="Inter" font-size="14" font-weight="600" fill="#6B7684" text-anchor="start">질의응답 전환 확인</text><rect x="0" y="0" width="390" height="844" rx="20" fill="#FFFFFF" stroke="#D6DBE0" stroke-width="1.5"/><g><text x="195.0" y="88" font-family="Inter" font-size="20" font-weight="700" fill="#191F28" text-anchor="middle">1차 발표</text><text x="195.0" y="200" font-family="Inter" font-size="34" font-weight="800" fill="#FFAA00" text-anchor="middle">11:03</text><text x="195.0" y="260" font-family="Inter" font-size="22" font-weight="700" fill="#191F28" text-anchor="middle">발표를 마쳤어요.</text><text x="195.0" y="292" font-family="Inter" font-size="22" font-weight="700" fill="#191F28" text-anchor="middle">질의응답으로 넘어갈까요?</text><text x="195.0" y="330" font-family="Inter" font-size="13" font-weight="400" fill="#6B7684" text-anchor="middle">발표 기록은 자동으로 저장돼요.</text><rect x="24" y="696" width="342" height="56" rx="14" fill="#FFAA00"/><text x="195.0" y="729.76" font-family="Inter" font-size="16" font-weight="700" fill="#FFFFFF" text-anchor="middle">질의응답 시작하기</text><rect x="24" y="764" width="342" height="56" rx="14" fill="#F2F4F6"/><text x="195.0" y="797.76" font-family="Inter" font-size="16" font-weight="600" fill="#4E5968" text-anchor="middle">안 할게요</text></g></g></svg>