<svg xmlns="http://www.w3.org/2000/svg" width="1802" height="922" viewBox="-1 -10 1802 934"><text x="0" y="28" font-family="Inter" font-size="26" font-weight="800" fill="#191F28" text-anchor="start">06 질의응답</text><g transform="translate(0,76)"><text x="0" y="-14" font-family="Inter" font-size="14" font-weight="600" fill="#6B7684" text-anchor="start">질문 재생</text><rect x="0" y="0" width="390" height="844" rx="20" fill="#FFFFFF" stroke="#D6DBE0" stroke-width="1.5"/><g><path d="M34 24 L26 30 L34 36" stroke="#191F28" stroke-width="1.8" fill="none" stroke-linecap="round" stroke-linejoin="round"/><text x="195.0" y="35" font-family="Inter" font-size="17" font-weight="600" fill="#191F28" text-anchor="middle">1차 발표</text><text x="366" y="35" font-family="Inter" font-size="14" font-weight="700" fill="#D18700" text-anchor="end">Q2 / 5</text><circle cx="195.0" cy="170" r="44" fill="#FFF4DC" stroke="#FFAA00" stroke-width="2"/><text x="195.0" y="182.32" font-family="Inter" font-size="35" font-weight="700" fill="#D18700" text-anchor="middle">꼰</text><text x="195.0" y="238" font-family="Inter" font-size="16" font-weight="700" fill="#191F28" text-anchor="middle">꼰대 교수</text><rect x="24" y="268" width="342" height="120" rx="16" fill="#F7F8FA"/><text x="44" y="300" font-family="Inter" font-size="14" font-weight="400" fill="#191F28" text-anchor="start">"아까 3페이지에서 성능이 2배 좋아졌다고</text><text x="44" y="321" font-family="Inter" font-size="14" font-weight="400" fill="#191F28" text-anchor="start">했는데, 요즘 애들은 근거도 없이 말하더라.</text><text x="44" y="342" font-family="Inter" font-size="14" font-weight="400" fill="#191F28" text-anchor="start">측정 환경이 뭐였는지 설명해봐요."</text><rect x="24" y="402" width="272" height="26" rx="13" fill="#FFF4DC"/><text x="160.0" y="419" font-family="Inter" font-size="12" font-weight="600" fill="#D18700" text-anchor="middle">근거: 슬라이드 3 · 발표 04:12</text><rect x="54.0" y="496.0" width="3.5" height="8" rx="2" fill="#FFAA00"/><rect x="65.75" y="493.0" width="3.5" height="14" rx="2" fill="#FFAA00"/><rect x="77.5" y="489.0" width="3.5" height="22" rx="2" fill="#FFAA00"/><rect x="89.25" y="485.0" width="3.5" height="30" rx="2" fill="#FFAA00"/><rect x="101.0" y="491.0" width="3.5" height="18" rx="2" fill="#FFAA00"/><rect x="112.75" y="487.0" width="3.5" height="26" rx="2" fill="#FFAA00"/><rect x="124.5" y="494.0" width="3.5" height="12" rx="2" fill="#FFAA00"/><rect x="136.25" y="484.0" width="3.5" height="32" rx="2" fill="#FFAA00"/><rect x="148.0" y="490.0" width="3.5" height="20" rx="2" fill="#FFAA00"/><rect x="159.75" y="495.0" width="3.5" height="10" rx="2" fill="#FFAA00"/><rect x="171.5" y="488.0" width="3.5" height="24" rx="2" fill="#FFAA00"/><rect x="183.25" y="483.0" width="3.5" height="34" rx="2" fill="#FFAA00"/><rect x="195.0" y="492.0" width="3.5" height="16" rx="2" fill="#FFAA00"/><rect x="206.75" y="486.0" width="3.5" height="28" rx="2" fill="#FFAA00"/><rect x="218.5" y="494.0" width="3.5" height="12" rx="2" fill="#FFAA00"/><rect x="230.25" y="489.0" width="3.5" height="22" rx="2" fill="#E5E8EB"/><rect x="242.0" y="485.0" width="3.5" height="30" rx="2" fill="#E5E8EB"/><rect x="253.75" y="493.0" width="3.5" height="14" rx="2" fill="#E5E8EB"/><rect x="265.5" y="487.0" width="3.5" height="26" rx="2" fill="#E5E8EB"/><rect x="277.25" y="495.0" width="3.5" height="10" rx="2" fill="#E5E8EB"/><rect x="289.0" y="490.0" width="3.5" height="20" rx="2" fill="#E5E8EB"/><rect x="300.75" y="484.0" width="3.5" height="32" rx="2" fill="#E5E8EB"/><rect x="312.5" y="492.0" width="3.5" height="16" rx="2" fill="#E5E8EB"/><rect x="324.25" y="496.0" width="3.5" height="8" rx="2" fill="#E5E8EB"/><text x="195.0" y="546" font-family="Inter" font-size="13" font-weight="500" fill="#D18700" text-anchor="middle">질문 재생 중…</text><rect x="135.0" y="576" width="120" height="40" rx="10" fill="#F2F4F6"/><text x="195.0" y="600.68" font-family="Inter" font-size="13" font-weight="600" fill="#4E5968" text-anchor="middle">다시 듣기</text><text x="195.0" y="740" font-family="Inter" font-size="12" font-weight="400" fill="#B0B8C1" text-anchor="middle">재생이 끝나면 자동으로 답변 녹음이 시작돼요.</text></g></g><g transform="translate(470,76)"><text x="0" y="-14" font-family="Inter" font-size="14" font-weight="600" fill="#6B7684" text-anchor="start">답변 녹음 중</text><rect x="0" y="0" width="390" height="844" rx="20" fill="#FFFFFF" stroke="#D6DBE0" stroke-width="1.5"/><g><path d="M34 24 L26 30 L34 36" stroke="#191F28" stroke-width="1.8" fill="none" stroke-linecap="round" stroke-linejoin="round"/><text x="195.0" y="35" font-family="Inter" font-size="17" font-weight="600" fill="#191F28" text-anchor="middle">1차 발표</text><text x="366" y="35" font-family="Inter" font-size="14" font-weight="700" fill="#D18700" text-anchor="end">Q2 / 5</text><circle cx="195.0" cy="150" r="36" fill="#FFF4DC"/><text x="195.0" y="160.08" font-family="Inter" font-size="28" font-weight="700" fill="#D18700" text-anchor="middle">꼰</text><rect x="24" y="210" width="342" height="84" rx="16" fill="#F7F8FA"/><text x="44" y="240.0" font-family="Inter" font-size="13.5" font-weight="400" fill="#6B7684" text-anchor="start">"…측정 환경이 뭐였는지 설명해봐요."</text><text x="44" y="276" font-family="Inter" font-size="11.5" font-weight="500" fill="#D18700" text-anchor="start">근거: 슬라이드 3</text><circle cx="195.0" cy="400" r="56" fill="none" stroke="#FFAA00" stroke-width="3"/><circle cx="163.0" cy="366" r="5" fill="#F04452"/><text x="195.0" y="394" font-family="Inter" font-size="15" font-weight="700" fill="#D18700" text-anchor="middle">답변</text><text x="195.0" y="416" font-family="Inter" font-size="15" font-weight="700" fill="#D18700" text-anchor="middle">녹음 중…</text><text x="195.0" y="494" font-family="Inter" font-size="22" font-weight="700" fill="#191F28" text-anchor="middle">00:41 / 02:00</text><text x="195.0" y="522" font-family="Inter" font-size="12" font-weight="400" fill="#B0B8C1" text-anchor="middle">제한시간이 지나면 자동으로 다음 질문으로 넘어가요.</text><rect x="24" y="696" width="342" height="56" rx="14" fill="#FFAA00"/><text x="195.0" y="729.76" font-family="Inter" font-size="16" font-weight="700" fill="#FFFFFF" text-anchor="middle">답변 완료</text><rect x="24" y="764" width="342" height="56" rx="14" fill="#F2F4F6"/><text x="195.0" y="797.76" font-family="Inter" font-size="16" font-weight="600" fill="#4E5968" text-anchor="middle">모르겠어요 · 패스</text></g></g><g transform="translate(940,76)"><text x="0" y="-14" font-family="Inter" font-size="14" font-weight="600" fill="#6B7684" text-anchor="start">꼬리질문</text><rect x="0" y="0" width="390" height="844" rx="20" fill="#FFFFFF" stroke="#D6DBE0" stroke-width="1.5"/><g><path d="M34 24 L26 30 L34 36" stroke="#191F28" stroke-width="1.8" fill="none" stroke-linecap="round" stroke-linejoin="round"/><text x="195.0" y="35" font-family="Inter" font-size="17" font-weight="600" fill="#191F28" text-anchor="middle">1차 발표</text><text x="366" y="35" font-family="Inter" font-size="14" font-weight="700" fill="#D18700" text-anchor="end">Q2 / 5</text><rect x="143.0" y="118" width="140" height="26" rx="13" fill="#FFF4DC"/><text x="213.0" y="135" font-family="Inter" font-size="12" font-weight="600" fill="#D18700" text-anchor="middle">꼬리질문 1 / 1</text><circle cx="195.0" cy="196" r="44" fill="#FFF4DC" stroke="#FFAA00" stroke-width="2"/><text x="195.0" y="208.32" font-family="Inter" font-size="35" font-weight="700" fill="#D18700" text-anchor="middle">꼰</text><text x="195.0" y="264" font-family="Inter" font-size="16" font-weight="700" fill="#191F28" text-anchor="middle">꼰대 교수</text><rect x="24" y="292" width="342" height="64" rx="16" fill="#F2F4F6"/><text x="44" y="318.0" font-family="Inter" font-size="12.5" font-weight="400" fill="#6B7684" text-anchor="start">내 답변 요약: 사내 서버 A100 1대에서</text><text x="44" y="337.5" font-family="Inter" font-size="12.5" font-weight="400" fill="#6B7684" text-anchor="start">벤치마크 3회 평균으로 측정했습니다.</text><rect x="24" y="370" width="342" height="100" rx="16" fill="#F7F8FA"/><text x="44" y="402" font-family="Inter" font-size="14" font-weight="400" fill="#191F28" text-anchor="start">"3회 평균이라… 표준편차는 확인했어요?</text><text x="44" y="423" font-family="Inter" font-size="14" font-weight="400" fill="#191F28" text-anchor="start">재현성은 어떻게 보장할 건데요?"</text><rect x="54.0" y="516.0" width="3.5" height="8" rx="2" fill="#FFAA00"/><rect x="65.75" y="513.0" width="3.5" height="14" rx="2" fill="#FFAA00"/><rect x="77.5" y="509.0" width="3.5" height="22" rx="2" fill="#FFAA00"/><rect x="89.25" y="505.0" width="3.5" height="30" rx="2" fill="#FFAA00"/><rect x="101.0" y="511.0" width="3.5" height="18" rx="2" fill="#FFAA00"/><rect x="112.75" y="507.0" width="3.5" height="26" rx="2" fill="#FFAA00"/><rect x="124.5" y="514.0" width="3.5" height="12" rx="2" fill="#FFAA00"/><rect x="136.25" y="504.0" width="3.5" height="32" rx="2" fill="#FFAA00"/><rect x="148.0" y="510.0" width="3.5" height="20" rx="2" fill="#FFAA00"/><rect x="159.75" y="515.0" width="3.5" height="10" rx="2" fill="#FFAA00"/><rect x="171.5" y="508.0" width="3.5" height="24" rx="2" fill="#FFAA00"/><rect x="183.25" y="503.0" width="3.5" height="34" rx="2" fill="#FFAA00"/><rect x="195.0" y="512.0" width="3.5" height="16" rx="2" fill="#FFAA00"/><rect x="206.75" y="506.0" width="3.5" height="28" rx="2" fill="#FFAA00"/><rect x="218.5" y="514.0" width="3.5" height="12" rx="2" fill="#FFAA00"/><rect x="230.25" y="509.0" width="3.5" height="22" rx="2" fill="#E5E8EB"/><rect x="242.0" y="505.0" width="3.5" height="30" rx="2" fill="#E5E8EB"/><rect x="253.75" y="513.0" width="3.5" height="14" rx="2" fill="#E5E8EB"/><rect x="265.5" y="507.0" width="3.5" height="26" rx="2" fill="#E5E8EB"/><rect x="277.25" y="515.0" width="3.5" height="10" rx="2" fill="#E5E8EB"/><rect x="289.0" y="510.0" width="3.5" height="20" rx="2" fill="#E5E8EB"/><rect x="300.75" y="504.0" width="3.5" height="32" rx="2" fill="#E5E8EB"/><rect x="312.5" y="512.0" width="3.5" height="16" rx="2" fill="#E5E8EB"/><rect x="324.25" y="516.0" width="3.5" height="8" rx="2" fill="#E5E8EB"/><rect x="135.0" y="560" width="120" height="40" rx="10" fill="#F2F4F6"/><text x="195.0" y="584.68" font-family="Inter" font-size="13" font-weight="600" fill="#4E5968" text-anchor="middle">다시 듣기</text></g></g><g transform="translate(1410,76)"><text x="0" y="-14" font-family="Inter" font-size="14" font-weight="600" fill="#6B7684" text-anchor="start">질의응답 종료 · 리포트 생성</text><rect x="0" y="0" width="390" height="844" rx="20" fill="#FFFFFF" stroke="#D6DBE0" stroke-width="1.5"/><g><text x="195.0" y="150" font-family="Inter" font-size="22" font-weight="700" fill="#191F28" text-anchor="middle">질의응답이 끝났어요</text><rect x="24" y="190" width="342" height="92" rx="16" fill="#F7F8FA"/><text x="81.0" y="230" font-family="Inter" font-size="22" font-weight="800" fill="#D18700" text-anchor="middle">5</text><text x="81.0" y="258" font-family="Inter" font-size="12.5" font-weight="400" fill="#6B7684" text-anchor="middle">질문</text><text x="195.0" y="230" font-family="Inter" font-size="22" font-weight="800" fill="#D18700" text-anchor="middle">4</text><text x="195.0" y="258" font-family="Inter" font-size="12.5" font-weight="400" fill="#6B7684" text-anchor="middle">답변</text><text x="309.0" y="230" font-family="Inter" font-size="22" font-weight="800" fill="#B0B8C1" text-anchor="middle">1</text><text x="309.0" y="258" font-family="Inter" font-size="12.5" font-weight="400" fill="#6B7684" text-anchor="middle">패스</text><path d="M195.0 380 A20 20 0 1 1 175.0 400" stroke="#FFAA00" stroke-width="3" fill="none" stroke-linecap="round" stroke-linejoin="round"/><text x="195.0" y="456" font-family="Inter" font-size="17" font-weight="700" fill="#191F28" text-anchor="middle">리포트를 만들고 있어요…</text><text x="195.0" y="486" font-family="Inter" font-size="13" font-weight="400" fill="#6B7684" text-anchor="middle">답변 품질과 발표 습관을 분석 중이에요.</text><text x="195.0" y="506" font-family="Inter" font-size="13" font-weight="400" fill="#6B7684" text-anchor="middle">완료되면 발표 상세에서 볼 수 있어요.</text><rect x="24" y="764" width="342" height="56" rx="14" fill="#F2F4F6"/><text x="195.0" y="797.76" font-family="Inter" font-size="16" font-weight="600" fill="#4E5968" text-anchor="middle">홈으로</text></g></g></svg>