<svg xmlns="http://www.w3.org/2000/svg" width="1332" height="922" viewBox="-1 -10 1332 934"><text x="0" y="28" font-family="Inter" font-size="26" font-weight="800" fill="#191F28" text-anchor="start">07 이전 발표 (열람·관리)</text><g transform="translate(0,76)"><text x="0" y="-14" font-family="Inter" font-size="14" font-weight="600" fill="#6B7684" text-anchor="start">발표 상세 · 스크립트 탭</text><rect x="0" y="0" width="390" height="844" rx="20" fill="#FFFFFF" stroke="#D6DBE0" stroke-width="1.5"/><g><path d="M34 24 L26 30 L34 36" stroke="#191F28" stroke-width="1.8" fill="none" stroke-linecap="round" stroke-linejoin="round"/><text x="195.0" y="35" font-family="Inter" font-size="17" font-weight="600" fill="#191F28" text-anchor="middle">1차 발표</text><path d="M353 24 H367 M357.5 24 V21 H362.5 V24 M355 24 L356 39 H364 L365 24" stroke="#6B7684" stroke-width="1.6" fill="none" stroke-linecap="round" stroke-linejoin="round"/><text x="24" y="92" font-family="Inter" font-size="13" font-weight="400" fill="#6B7684" text-anchor="start">7월 8일 · 11분 3초 · 질문 5개</text><rect x="24" y="108" width="342" height="56" rx="16" fill="#F2F4F6"/><circle cx="52" cy="136" r="16" fill="#FFAA00"/><path d="M48.4 130 L58 136 L48.4 142 Z" fill="#FFFFFF"/><rect x="80" y="133" width="202" height="6" rx="3" fill="#E5E8EB"/><rect x="80" y="133" width="70.69999999999999" height="6" rx="3" fill="#FFAA00"/><text x="350" y="141" font-family="Inter" font-size="13" font-weight="500" fill="#6B7684" text-anchor="end">12:34</text><text x="81.0" y="210" font-family="Inter" font-size="15" font-weight="700" fill="#191F28" text-anchor="middle">스크립트</text><rect x="46.8" y="222" width="68.39999999999999" height="2.5" rx="1" fill="#191F28"/><text x="195.0" y="210" font-family="Inter" font-size="15" font-weight="500" fill="#B0B8C1" text-anchor="middle">Q&amp;A 로그</text><text x="309.0" y="210" font-family="Inter" font-size="15" font-weight="500" fill="#B0B8C1" text-anchor="middle">리포트</text><line x1="24" y1="224" x2="366" y2="224" stroke="#E5E8EB" stroke-width="1"/><text x="24" y="248" font-family="Inter" font-size="12" font-weight="600" fill="#D18700" text-anchor="start">00:12</text><text x="24" y="270" font-family="Inter" font-size="14" font-weight="400" fill="#191F28" text-anchor="start">안녕하세요, 오늘 발표를 맡은 박준서입니다.</text><text x="24" y="291" font-family="Inter" font-size="14" font-weight="400" fill="#191F28" text-anchor="start">저희 프로젝트는 발표 리허설을 돕는…</text><text x="24" y="336" font-family="Inter" font-size="12" font-weight="600" fill="#D18700" text-anchor="start">01:40</text><text x="24" y="358" font-family="Inter" font-size="14" font-weight="400" fill="#191F28" text-anchor="start">핵심 기능은 세 가지입니다. 첫째, AI가</text><text x="24" y="379" font-family="Inter" font-size="14" font-weight="400" fill="#191F28" text-anchor="start">발표 자료를 분석해 예상 질문을 만들고…</text><text x="24" y="424" font-family="Inter" font-size="12" font-weight="600" fill="#D18700" text-anchor="start">04:12</text><text x="24" y="446" font-family="Inter" font-size="14" font-weight="400" fill="#191F28" text-anchor="start">성능은 기존 대비 2배 개선되었습니다.</text><text x="24" y="467" font-family="Inter" font-size="14" font-weight="400" fill="#191F28" text-anchor="start">측정에는 사내 서버를 사용했고…</text></g></g><g transform="translate(470,76)"><text x="0" y="-14" font-family="Inter" font-size="14" font-weight="600" fill="#6B7684" text-anchor="start">발표 상세 · Q&amp;A 탭</text><rect x="0" y="0" width="390" height="844" rx="20" fill="#FFFFFF" stroke="#D6DBE0" stroke-width="1.5"/><g><path d="M34 24 L26 30 L34 36" stroke="#191F28" stroke-width="1.8" fill="none" stroke-linecap="round" stroke-linejoin="round"/><text x="195.0" y="35" font-family="Inter" font-size="17" font-weight="600" fill="#191F28" text-anchor="middle">1차 발표</text><path d="M353 24 H367 M357.5 24 V21 H362.5 V24 M355 24 L356 39 H364 L365 24" stroke="#6B7684" stroke-width="1.6" fill="none" stroke-linecap="round" stroke-linejoin="round"/><text x="24" y="92" font-family="Inter" font-size="13" font-weight="400" fill="#6B7684" text-anchor="start">7월 8일 · 11분 3초 · 질문 5개</text><rect x="24" y="108" width="342" height="56" rx="16" fill="#F2F4F6"/><circle cx="52" cy="136" r="16" fill="#FFAA00"/><path d="M48.4 130 L58 136 L48.4 142 Z" fill="#FFFFFF"/><rect x="80" y="133" width="202" height="6" rx="3" fill="#E5E8EB"/><rect x="80" y="133" width="70.69999999999999" height="6" rx="3" fill="#FFAA00"/><text x="350" y="141" font-family="Inter" font-size="13" font-weight="500" fill="#6B7684" text-anchor="end">12:34</text><text x="81.0" y="210" font-family="Inter" font-size="15" font-weight="500" fill="#B0B8C1" text-anchor="middle">스크립트</text><text x="195.0" y="210" font-family="Inter" font-size="15" font-weight="700" fill="#191F28" text-anchor="middle">Q&amp;A 로그</text><rect x="160.8" y="222" width="68.39999999999999" height="2.5" rx="1" fill="#191F28"/><text x="309.0" y="210" font-family="Inter" font-size="15" font-weight="500" fill="#B0B8C1" text-anchor="middle">리포트</text><line x1="24" y1="224" x2="366" y2="224" stroke="#E5E8EB" stroke-width="1"/><rect x="24" y="244" width="80" height="26" rx="13" fill="#FFF4DC"/><text x="64.0" y="261" font-family="Inter" font-size="12" font-weight="600" fill="#D18700" text-anchor="middle">꼰대 Q1</text><circle cx="124" cy="257" r="11" fill="#FFF4DC"/><path d="M121.6 253 L128 257 L121.6 261 Z" fill="#D18700"/><text x="24" y="286" font-family="Inter" font-size="14" font-weight="400" fill="#191F28" text-anchor="start">측정 환경이 뭐였는지 설명해봐요.</text><rect x="40" y="302" width="326" height="56" rx="16" fill="#F2F4F6"/><text x="56" y="326.0" font-family="Inter" font-size="12.5" font-weight="400" fill="#6B7684" text-anchor="start">내 답변: 사내 서버 A100 1대에서 3회</text><text x="56" y="345.5" font-family="Inter" font-size="12.5" font-weight="400" fill="#6B7684" text-anchor="start">평균으로 측정했습니다.</text><rect x="24" y="380" width="80" height="26" rx="13" fill="#FFF4DC"/><text x="64.0" y="397" font-family="Inter" font-size="12" font-weight="600" fill="#D18700" text-anchor="middle">에겐 Q2</text><rect x="112" y="380" width="56" height="26" rx="13" fill="#F2F4F6"/><text x="140.0" y="397" font-family="Inter" font-size="12" font-weight="600" fill="#6B7684" text-anchor="middle">패스함</text><text x="24" y="422" font-family="Inter" font-size="14" font-weight="400" fill="#191F28" text-anchor="start">경쟁 서비스 대비 차별점이 뭔가요?</text><rect x="24" y="456" width="104" height="26" rx="13" fill="#FFF4DC"/><text x="76.0" y="473" font-family="Inter" font-size="12" font-weight="600" fill="#D18700" text-anchor="middle">꼬리 Q2-1</text><text x="24" y="498" font-family="Inter" font-size="14" font-weight="400" fill="#191F28" text-anchor="start">표준편차는 확인했어요?</text><rect x="40" y="514" width="326" height="40" rx="16" fill="#F2F4F6"/><text x="56" y="538.0" font-family="Inter" font-size="12.5" font-weight="400" fill="#6B7684" text-anchor="start">내 답변: 확인하지 못했습니다…</text></g></g><g transform="translate(940,76)"><text x="0" y="-14" font-family="Inter" font-size="14" font-weight="600" fill="#6B7684" text-anchor="start">발표 삭제 확인</text><rect x="0" y="0" width="390" height="844" rx="20" fill="#FFFFFF" stroke="#D6DBE0" stroke-width="1.5"/><g><path d="M34 24 L26 30 L34 36" stroke="#191F28" stroke-width="1.8" fill="none" stroke-linecap="round" stroke-linejoin="round"/><text x="195.0" y="35" font-family="Inter" font-size="17" font-weight="600" fill="#191F28" text-anchor="middle">1차 발표</text><path d="M353 24 H367 M357.5 24 V21 H362.5 V24 M355 24 L356 39 H364 L365 24" stroke="#6B7684" stroke-width="1.6" fill="none" stroke-linecap="round" stroke-linejoin="round"/><rect x="0" y="0" width="390" height="844" rx="0" fill="#191F28" fill-opacity="0.45"/><rect x="32" y="310" width="326" height="190" rx="20" fill="#FFFFFF"/><text x="195.0" y="354" font-family="Inter" font-size="18" font-weight="700" fill="#191F28" text-anchor="middle">발표를 삭제할까요?</text><text x="195.0" y="382" font-family="Inter" font-size="13.5" font-weight="400" fill="#6B7684" text-anchor="middle">녹음, 스크립트, Q&amp;A 로그가</text><text x="195.0" y="402" font-family="Inter" font-size="13.5" font-weight="400" fill="#6B7684" text-anchor="middle">함께 삭제되며 복구할 수 없어요.</text><rect x="52" y="432" width="138.0" height="48" rx="10" fill="#F2F4F6"/><text x="121.0" y="461.4" font-family="Inter" font-size="15" font-weight="600" fill="#4E5968" text-anchor="middle">취소</text><rect x="200.0" y="432" width="138.0" height="48" rx="10" fill="#F04452"/><text x="269.0" y="461.4" font-family="Inter" font-size="15" font-weight="700" fill="#FFFFFF" text-anchor="middle">삭제</text></g></g></svg>