<svg xmlns="http://www.w3.org/2000/svg" width="862" height="922" viewBox="-1 -10 862 934"><text x="0" y="28" font-family="Inter" font-size="26" font-weight="800" fill="#191F28" text-anchor="start">08 발표 분석 리포트</text><g transform="translate(0,76)"><text x="0" y="-14" font-family="Inter" font-size="14" font-weight="600" fill="#6B7684" text-anchor="start">단일 리포트</text><rect x="0" y="0" width="390" height="844" rx="20" fill="#FFFFFF" stroke="#D6DBE0" stroke-width="1.5"/><g><path d="M34 24 L26 30 L34 36" stroke="#191F28" stroke-width="1.8" fill="none" stroke-linecap="round" stroke-linejoin="round"/><text x="195.0" y="35" font-family="Inter" font-size="17" font-weight="600" fill="#191F28" text-anchor="middle">1차 발표</text><path d="M353 24 H367 M357.5 24 V21 H362.5 V24 M355 24 L356 39 H364 L365 24" stroke="#6B7684" stroke-width="1.6" fill="none" stroke-linecap="round" stroke-linejoin="round"/><text x="24" y="92" font-family="Inter" font-size="13" font-weight="400" fill="#6B7684" text-anchor="start">7월 8일 · 11분 3초 · 질문 5개</text><rect x="24" y="108" width="342" height="56" rx="16" fill="#F2F4F6"/><circle cx="52" cy="136" r="16" fill="#FFAA00"/><path d="M48.4 130 L58 136 L48.4 142 Z" fill="#FFFFFF"/><rect x="80" y="133" width="202" height="6" rx="3" fill="#E5E8EB"/><rect x="80" y="133" width="70.69999999999999" height="6" rx="3" fill="#FFAA00"/><text x="350" y="141" font-family="Inter" font-size="13" font-weight="500" fill="#6B7684" text-anchor="end">12:34</text><text x="81.0" y="210" font-family="Inter" font-size="15" font-weight="500" fill="#B0B8C1" text-anchor="middle">스크립트</text><text x="195.0" y="210" font-family="Inter" font-size="15" font-weight="500" fill="#B0B8C1" text-anchor="middle">Q&amp;A 로그</text><text x="309.0" y="210" font-family="Inter" font-size="15" font-weight="700" fill="#191F28" text-anchor="middle">리포트</text><rect x="274.8" y="222" width="68.39999999999999" height="2.5" rx="1" fill="#191F28"/><line x1="24" y1="224" x2="366" y2="224" stroke="#E5E8EB" stroke-width="1"/><text x="24" y="240" font-family="Inter" font-size="15" font-weight="700" fill="#191F28" text-anchor="start">답변 품질</text><rect x="24" y="256" width="342" height="96" rx="16" fill="#E6F9F1"/><text x="44" y="288" font-family="Inter" font-size="14.5" font-weight="700" fill="#00915A" text-anchor="start">이런 질문에 강해요 💪</text><rect x="40" y="302" width="92" height="40" rx="20" fill="#FFFFFF" stroke="#E5E8EB" stroke-width="1.2"/><text x="86.0" y="327" font-family="Inter" font-size="14" font-weight="500" fill="#4E5968" text-anchor="middle">큰그림형</text><rect x="140" y="302" width="122" height="40" rx="20" fill="#FFFFFF" stroke="#E5E8EB" stroke-width="1.2"/><text x="201.0" y="327" font-family="Inter" font-size="14" font-weight="500" fill="#4E5968" text-anchor="middle">기초 개념형</text><rect x="24" y="364" width="342" height="96" rx="16" fill="#FFECEE"/><text x="44" y="396" font-family="Inter" font-size="14.5" font-weight="700" fill="#F04452" text-anchor="start">이런 질문에 약해요</text><rect x="40" y="410" width="137" height="40" rx="20" fill="#FFFFFF" stroke="#E5E8EB" stroke-width="1.2"/><text x="108.5" y="435" font-family="Inter" font-size="14" font-weight="500" fill="#4E5968" text-anchor="middle">디테일 추궁형</text><rect x="185" y="410" width="122" height="40" rx="20" fill="#FFFFFF" stroke="#E5E8EB" stroke-width="1.2"/><text x="246.0" y="435" font-family="Inter" font-size="14" font-weight="500" fill="#4E5968" text-anchor="middle">수치 검증형</text><text x="24" y="498" font-family="Inter" font-size="15" font-weight="700" fill="#191F28" text-anchor="start">발표 습관</text><rect x="24" y="514" width="108.66666666666667" height="84" rx="16" fill="#F7F8FA"/><text x="40" y="552" font-family="Inter" font-size="20" font-weight="700" fill="#191F28" text-anchor="start">182자/분</text><text x="40" y="576" font-family="Inter" font-size="12" font-weight="400" fill="#6B7684" text-anchor="start">말 속도</text><rect x="140.66666666666669" y="514" width="108.66666666666667" height="84" rx="16" fill="#F7F8FA"/><text x="156.66666666666669" y="552" font-family="Inter" font-size="20" font-weight="700" fill="#F04452" text-anchor="start">14회</text><text x="156.66666666666669" y="576" font-family="Inter" font-size="12" font-weight="400" fill="#6B7684" text-anchor="start">필러 워드</text><rect x="257.33333333333337" y="514" width="108.66666666666667" height="84" rx="16" fill="#F7F8FA"/><text x="273.33333333333337" y="552" font-family="Inter" font-size="20" font-weight="700" fill="#D18700" text-anchor="start">+0:32</text><text x="273.33333333333337" y="576" font-family="Inter" font-size="12" font-weight="400" fill="#6B7684" text-anchor="start">시간 초과</text><text x="24" y="626.0" font-family="Inter" font-size="12.5" font-weight="400" fill="#6B7684" text-anchor="start">'음/어' 같은 필러 워드가 도입부에 몰려 있어요.</text><text x="24" y="645.5" font-family="Inter" font-size="12.5" font-weight="400" fill="#6B7684" text-anchor="start">첫 1분 대본을 미리 정해두면 좋아요.</text></g></g><g transform="translate(470,76)"><text x="0" y="-14" font-family="Inter" font-size="14" font-weight="600" fill="#6B7684" text-anchor="start">성장 리포트</text><rect x="0" y="0" width="390" height="844" rx="20" fill="#FFFFFF" stroke="#D6DBE0" stroke-width="1.5"/><g><path d="M34 24 L26 30 L34 36" stroke="#191F28" stroke-width="1.8" fill="none" stroke-linecap="round" stroke-linejoin="round"/><text x="195.0" y="35" font-family="Inter" font-size="17" font-weight="600" fill="#191F28" text-anchor="middle">성장 리포트</text><text x="24" y="104" font-family="Inter" font-size="24" font-weight="700" fill="#191F28" text-anchor="start">teamname1의</text><text x="24" y="138" font-family="Inter" font-size="24" font-weight="700" fill="#191F28" text-anchor="start">성장 리포트</text><rect x="24" y="176" width="342" height="48" rx="12" fill="#F2F4F6"/><rect x="28.0" y="180" width="167.0" height="40" rx="9" fill="#FFFFFF" stroke="#E5E8EB" stroke-width="1"/><text x="111.5" y="205" font-family="Inter" font-size="14" font-weight="600" fill="#191F28" text-anchor="middle">전체 회차</text><text x="278.5" y="205" font-family="Inter" font-size="14" font-weight="500" fill="#6B7684" text-anchor="middle">최근 5회</text><text x="24" y="262" font-family="Inter" font-size="15" font-weight="700" fill="#191F28" text-anchor="start">약점 유형 개선 추이</text><rect x="24" y="278" width="342" height="190" rx="16" fill="#F7F8FA"/><rect x="66" y="398" width="26" height="40" rx="6" fill="#FFD780"/><text x="79" y="458" font-family="Inter" font-size="11.5" font-weight="500" fill="#6B7684" text-anchor="middle">1차</text><rect x="140" y="376" width="26" height="62" rx="6" fill="#FFD780"/><text x="153" y="458" font-family="Inter" font-size="11.5" font-weight="500" fill="#6B7684" text-anchor="middle">2차</text><rect x="214" y="360" width="26" height="78" rx="6" fill="#FFD780"/><text x="227" y="458" font-family="Inter" font-size="11.5" font-weight="500" fill="#6B7684" text-anchor="middle">3차</text><rect x="288" y="334" width="26" height="104" rx="6" fill="#FFAA00"/><text x="301" y="458" font-family="Inter" font-size="11.5" font-weight="500" fill="#6B7684" text-anchor="middle">4차</text><text x="44" y="306" font-family="Inter" font-size="12.5" font-weight="500" fill="#6B7684" text-anchor="start">디테일 추궁형 답변 점수</text><rect x="24" y="492" width="342" height="84" rx="16" fill="#FFF4DC"/><text x="44" y="522" font-family="Inter" font-size="13" font-weight="400" fill="#D18700" text-anchor="start">디테일 추궁형 점수가 2회차 연속 올랐어요.</text><text x="44" y="542" font-family="Inter" font-size="13" font-weight="400" fill="#D18700" text-anchor="start">수치 검증형 질문은 아직 준비가 필요해요.</text></g></g></svg>