<svg xmlns="http://www.w3.org/2000/svg" width="1332" height="922" viewBox="-1 -10 1332 934"><text x="0" y="28" font-family="Inter" font-size="26" font-weight="800" fill="#191F28" text-anchor="start">09 마이페이지</text><g transform="translate(0,76)"><text x="0" y="-14" font-family="Inter" font-size="14" font-weight="600" fill="#6B7684" text-anchor="start">마이페이지</text><rect x="0" y="0" width="390" height="844" rx="20" fill="#FFFFFF" stroke="#D6DBE0" stroke-width="1.5"/><g><path d="M34 24 L26 30 L34 36" stroke="#191F28" stroke-width="1.8" fill="none" stroke-linecap="round" stroke-linejoin="round"/><text x="195.0" y="35" font-family="Inter" font-size="17" font-weight="600" fill="#191F28" text-anchor="middle">마이페이지</text><circle cx="195.0" cy="150" r="40" fill="#FFF4DC"/><text x="195.0" y="161.2" font-family="Inter" font-size="32" font-weight="700" fill="#D18700" text-anchor="middle">J</text><text x="195.0" y="216" font-family="Inter" font-size="19" font-weight="700" fill="#191F28" text-anchor="middle">박준서</text><text x="195.0" y="240" font-family="Inter" font-size="13" font-weight="400" fill="#6B7684" text-anchor="middle">bjsbest0326@gmail.com</text><text x="24" y="324.0" font-family="Inter" font-size="16" font-weight="500" fill="#191F28" text-anchor="start">프로필 수정</text><path d="M358 314.0 L364 319.0 L358 324.0" stroke="#B0B8C1" stroke-width="1.8" fill="none" stroke-linecap="round" stroke-linejoin="round"/><line x1="24" y1="348" x2="366" y2="348" stroke="#E5E8EB" stroke-width="1"/><text x="24" y="382.0" font-family="Inter" font-size="16" font-weight="500" fill="#191F28" text-anchor="start">비밀번호 변경</text><path d="M358 372.0 L364 377.0 L358 382.0" stroke="#B0B8C1" stroke-width="1.8" fill="none" stroke-linecap="round" stroke-linejoin="round"/><line x1="24" y1="406" x2="366" y2="406" stroke="#E5E8EB" stroke-width="1"/><text x="24" y="440.0" font-family="Inter" font-size="16" font-weight="500" fill="#191F28" text-anchor="start">로그아웃</text><path d="M358 430.0 L364 435.0 L358 440.0" stroke="#B0B8C1" stroke-width="1.8" fill="none" stroke-linecap="round" stroke-linejoin="round"/><line x1="24" y1="464" x2="366" y2="464" stroke="#E5E8EB" stroke-width="1"/><text x="24" y="498.0" font-family="Inter" font-size="16" font-weight="500" fill="#F04452" text-anchor="start">회원 탈퇴</text><path d="M358 488.0 L364 493.0 L358 498.0" stroke="#B0B8C1" stroke-width="1.8" fill="none" stroke-linecap="round" stroke-linejoin="round"/><line x1="24" y1="522" x2="366" y2="522" stroke="#E5E8EB" stroke-width="1"/></g></g><g transform="translate(470,76)"><text x="0" y="-14" font-family="Inter" font-size="14" font-weight="600" fill="#6B7684" text-anchor="start">비밀번호 변경</text><rect x="0" y="0" width="390" height="844" rx="20" fill="#FFFFFF" stroke="#D6DBE0" stroke-width="1.5"/><g><path d="M34 24 L26 30 L34 36" stroke="#191F28" stroke-width="1.8" fill="none" stroke-linecap="round" stroke-linejoin="round"/><text x="195.0" y="35" font-family="Inter" font-size="17" font-weight="600" fill="#191F28" text-anchor="middle">비밀번호 변경</text><rect x="24" y="100" width="342" height="54" rx="12" fill="#FFFFFF" stroke="#E5E8EB" stroke-width="1.2"/><text x="40" y="132.0" font-family="Inter" font-size="15" font-weight="400" fill="#B0B8C1" text-anchor="start">현재 비밀번호</text><rect x="24" y="166" width="342" height="54" rx="12" fill="#FFFFFF" stroke="#E5E8EB" stroke-width="1.2"/><text x="40" y="198.0" font-family="Inter" font-size="15" font-weight="400" fill="#B0B8C1" text-anchor="start">새 비밀번호</text><rect x="24" y="232" width="342" height="54" rx="12" fill="#FFFFFF" stroke="#E5E8EB" stroke-width="1.2"/><text x="40" y="264.0" font-family="Inter" font-size="15" font-weight="400" fill="#B0B8C1" text-anchor="start">새 비밀번호 확인</text><text x="24" y="306" font-family="Inter" font-size="12" font-weight="400" fill="#6B7684" text-anchor="start">8자 이상, 영문·숫자·특수문자를 포함해주세요.</text><rect x="24" y="764" width="342" height="56" rx="14" fill="#FFAA00"/><text x="195.0" y="797.76" font-family="Inter" font-size="16" font-weight="700" fill="#FFFFFF" text-anchor="middle">변경하기</text></g></g><g transform="translate(940,76)"><text x="0" y="-14" font-family="Inter" font-size="14" font-weight="600" fill="#6B7684" text-anchor="start">회원 탈퇴 확인</text><rect x="0" y="0" width="390" height="844" rx="20" fill="#FFFFFF" stroke="#D6DBE0" stroke-width="1.5"/><g><path d="M34 24 L26 30 L34 36" stroke="#191F28" stroke-width="1.8" fill="none" stroke-linecap="round" stroke-linejoin="round"/><text x="195.0" y="35" font-family="Inter" font-size="17" font-weight="600" fill="#191F28" text-anchor="middle">마이페이지</text><rect x="0" y="0" width="390" height="844" rx="0" fill="#191F28" fill-opacity="0.45"/><rect x="32" y="300" width="326" height="208" rx="20" fill="#FFFFFF"/><text x="195.0" y="344" font-family="Inter" font-size="18" font-weight="700" fill="#191F28" text-anchor="middle">정말 탈퇴할까요?</text><text x="195.0" y="372" font-family="Inter" font-size="13.5" font-weight="400" fill="#6B7684" text-anchor="middle">모든 팀, 발표 기록과 녹음이 삭제되며</text><text x="195.0" y="392" font-family="Inter" font-size="13.5" font-weight="400" fill="#6B7684" text-anchor="middle">복구할 수 없어요.</text><text x="195.0" y="412" font-family="Inter" font-size="13.5" font-weight="400" fill="#6B7684" text-anchor="middle">진행 중인 팀이 있다면 먼저 위임해주세요.</text><rect x="52" y="440" width="138.0" height="48" rx="10" fill="#F2F4F6"/><text x="121.0" y="469.4" font-family="Inter" font-size="15" font-weight="600" fill="#4E5968" text-anchor="middle">취소</text><rect x="200.0" y="440" width="138.0" height="48" rx="10" fill="#F04452"/><text x="269.0" y="469.4" font-family="Inter" font-size="15" font-weight="700" fill="#FFFFFF" text-anchor="middle">탈퇴</text></g></g></svg>